<svg width="15" height="16" viewBox="0 0 15 16" fill="none" xmlns="http://www.w3.org/2000/svg">
<path d="M9.33145 2.0625V5.75C9.33145 6.025 9.00645 6.1625 8.80645 5.98125L7.7127 4.975C7.59395 4.8625 7.40645 4.8625 7.2877 4.975L6.19395 5.975C5.99395 6.1625 5.66895 6.01875 5.66895 5.75V2.0625C5.66895 1.8875 5.80645 1.75 5.98145 1.75H9.01895C9.19395 1.75 9.33145 1.8875 9.33145 2.0625Z" fill="#394553"/>
<path d="M10.6125 1.78755C10.4312 1.76255 10.2688 1.9188 10.2688 2.10005V5.86255C10.2688 6.33755 9.9875 6.7688 9.55 6.96255C9.1125 7.15005 8.60625 7.0688 8.25625 6.7438L7.7125 6.2438C7.59375 6.1313 7.4125 6.1313 7.2875 6.2438L6.74375 6.7438C6.51875 6.9563 6.225 7.06255 5.93125 7.06255C5.76875 7.06255 5.60625 7.0313 5.45 6.96255C5.0125 6.7688 4.73125 6.33755 4.73125 5.86255V2.10005C4.73125 1.9188 4.56875 1.76255 4.3875 1.78755C2.6375 2.0063 1.875 3.18755 1.875 4.87505V11.1251C1.875 13.0001 2.8125 14.2501 5 14.2501H10C12.1875 14.2501 13.125 13.0001 13.125 11.1251V4.87505C13.125 3.18755 12.3625 2.0063 10.6125 1.78755ZM10.9375 12.2188H5.625C5.36875 12.2188 5.15625 12.0063 5.15625 11.7501C5.15625 11.4938 5.36875 11.2813 5.625 11.2813H10.9375C11.1938 11.2813 11.4062 11.4938 11.4062 11.7501C11.4062 12.0063 11.1938 12.2188 10.9375 12.2188ZM10.9375 9.7188H8.28125C8.025 9.7188 7.8125 9.5063 7.8125 9.25005C7.8125 8.9938 8.025 8.7813 8.28125 8.7813H10.9375C11.1938 8.7813 11.4062 8.9938 11.4062 9.25005C11.4062 9.5063 11.1938 9.7188 10.9375 9.7188Z" fill="#394553"/>
</svg>
